<?xml version="1.0" standalone="no"?>
<!DOCTYPE svg PUBLIC "-//W3C//DTD SVG 20010904//EN"
 "http://www.w3.org/TR/2001/REC-SVG-20010904/DTD/svg10.dtd">
<svg version="1.0" xmlns="http://www.w3.org/2000/svg"
 width="5721.000000pt" height="3754.000000pt" viewBox="0 0 5721.000000 3754.000000"
 preserveAspectRatio="xMidYMid meet">

<g transform="translate(0.000000,3754.000000) scale(0.100000,-0.100000)"
fill="#000000" stroke="none">
<path d="M0 25600 c0 -9545 3 -11940 13 -11940 6 0 250 9 542 20 394 15 563
25 660 40 425 65 794 86 1030 60 44 -5 213 -14 375 -20 162 -7 675 -40 1140
-75 584 -44 930 -66 1120 -70 151 -3 506 -15 787 -26 l513 -20 584 116 585
115 375 -20 c206 -11 421 -27 478 -35 164 -23 392 -43 673 -60 413 -25 690
-45 824 -61 112 -13 159 -12 495 6 204 11 724 31 1155 45 l785 26 437 99 438
100 348 6 c557 10 835 -17 1628 -161 l350 -63 700 -7 c477 -4 883 -14 1275
-30 316 -14 715 -29 885 -35 171 -6 348 -16 395 -23 115 -16 620 -16 775 1 66
7 163 20 215 27 52 8 221 23 375 35 338 25 367 31 815 180 472 157 646 197
900 207 309 12 546 -44 1090 -257 291 -114 450 -168 587 -201 83 -20 84 -20
466 1 210 11 681 27 1047 35 l665 16 650 119 c640 117 653 119 870 130 121 6
344 17 496 26 l276 14 309 -30 c351 -35 382 -42 779 -186 645 -233 770 -266
1085 -280 175 -8 397 5 859 51 190 18 386 37 434 40 76 6 87 10 82 24 -48 124
-119 465 -180 866 -25 165 -68 428 -95 585 -100 576 -148 990 -185 1615 -35
605 -46 1475 -25 2110 11 348 -3 310 145 381 160 76 295 101 740 139 165 14
329 30 365 35 123 19 2035 139 2370 150 184 6 679 21 1100 35 1389 44 1752 48
3760 41 2520 -8 3363 -19 4385 -56 457 -16 999 -34 1205 -40 206 -6 407 -15
445 -20 177 -25 433 -43 895 -65 397 -19 639 -42 870 -80 80 -13 221 -36 313
-50 314 -49 414 -90 531 -218 l76 -84 0 -66 c0 -35 7 -177 16 -313 22 -346 15
-600 -21 -799 -61 -332 -23 -465 133 -465 68 0 146 27 294 101 232 116 717
302 991 380 339 95 554 118 757 80 875 -166 1463 -514 1845 -1091 278 -419
419 -855 441 -1363 10 -214 -15 -419 -73 -602 -64 -201 -153 -377 -378 -745
-72 -118 -153 -255 -180 -304 l-48 -89 129 7 129 6 265 131 266 131 124 0 c80
-1 166 -8 240 -22 341 -61 415 -72 525 -77 83 -3 157 0 240 11 221 30 533 41
804 28 135 -7 300 -18 366 -27 66 -8 306 -24 532 -35 l413 -20 552 24 c304 14
601 28 661 32 l107 6 0 11869 0 11869 -28605 0 -28605 0 0 -11940z"/>
<path d="M49643 16896 l-362 -103 -182 -174 c-100 -96 -209 -210 -241 -254
-72 -95 -169 -292 -234 -470 -185 -511 -229 -600 -391 -784 -105 -120 -129
-141 -218 -195 -86 -53 -105 -69 -133 -116 -45 -75 -87 -213 -118 -383 -53
-300 -67 -365 -99 -459 -35 -107 -36 -103 30 -136 141 -70 408 -112 840 -132
343 -15 1647 -16 1765 -2 52 7 174 19 270 28 151 13 181 19 217 40 154 90 511
455 695 711 198 275 274 598 235 988 -9 88 -21 220 -27 293 l-11 134 -78 116
c-43 65 -123 194 -179 289 l-102 172 -73 42 c-39 23 -126 73 -192 112 -344
202 -580 300 -855 356 -183 37 -157 40 -557 -73z"/>
</g>
</svg>
